<svg width="282" height="34" viewBox="0 0 282 34" fill="none" xmlns="http://www.w3.org/2000/svg">
<path d="M-3.40939e-05 32.5439L9.02397 3.83994C9.83997 1.24794 11.76 -5.62668e-05 14.16 -5.62668e-05C16.56 -5.62668e-05 18.48 1.24794 19.296 3.83994L28.32 32.5439H25.2L22.464 23.5679L5.90397 23.6159L3.11997 32.5439H-3.40939e-05ZM11.712 4.75194L6.76797 20.7839H21.6L16.656 4.75194C16.224 3.40794 15.456 2.78395 14.16 2.78395C12.864 2.78395 12.096 3.40794 11.712 4.75194ZM52.641 32.5439H49.713V4.17594C49.713 1.48794 51.297 -5.62668e-05 53.553 -5.62668e-05C55.377 -5.62668e-05 56.481 0.767942 57.297 2.39994L70.593 29.1359C71.073 30.0959 71.361 30.4799 72.033 30.4799C72.609 30.4799 72.897 30.0479 72.897 29.1839V0.479943H75.825V28.8959C75.825 31.5839 74.049 33.0239 72.129 33.0239C70.449 33.0239 69.105 32.3039 68.289 30.6239L54.945 3.64794C54.561 2.83194 54.273 2.44794 53.697 2.44794C52.977 2.44794 52.641 2.97594 52.641 3.98394V32.5439ZM127.813 16.2719C127.813 26.4479 120.133 32.5439 110.437 32.5439H100.357V0.479943H110.773C120.949 0.479943 127.813 6.81594 127.813 16.2719ZM124.645 16.2719C124.645 8.54395 118.885 3.35994 110.773 3.35994H103.429V29.6639H110.437C118.213 29.6639 124.645 24.7199 124.645 16.2719ZM153.172 32.5439H150.148V0.479943H160.276C166.66 0.479943 171.748 3.40794 171.748 9.74394C171.748 14.4959 168.724 17.7119 163.876 18.5279C166.948 19.7759 168.58 22.8479 170.644 27.0239L173.38 32.5439H170.068L167.524 27.4559C165.268 22.9439 163.492 19.6799 158.26 19.6799H153.172V32.5439ZM160.276 3.35994H153.22V16.8479H160.18C165.028 16.8479 168.628 14.5919 168.628 9.98394C168.628 5.32794 164.836 3.35994 160.276 3.35994ZM207.384 32.9279C198.84 32.9279 194.808 27.5039 194.808 18.8639V0.479943H197.88V18.8159C197.88 25.7759 200.952 29.9999 207.384 29.9999C213.816 29.9999 216.888 25.7759 216.888 18.8159V0.479943H219.96V18.8639C219.96 27.5039 215.88 32.9279 207.384 32.9279ZM244.498 32.5919H241.378L245.986 3.50394C246.37 1.19994 248.05 -5.62668e-05 250.066 -5.62668e-05C251.842 -5.62668e-05 253.474 0.911943 254.05 2.97594L260.962 27.3599C261.154 28.0799 261.298 28.3679 261.73 28.3679C262.162 28.3679 262.306 28.0799 262.498 27.3599L269.362 3.07194C269.938 1.00795 271.57 0.0479431 273.394 0.0479431C275.362 0.0479431 277.042 1.29594 277.378 3.64794L281.554 32.5439H278.482L274.546 4.51194C274.402 3.45595 274.114 2.78395 273.25 2.78395C272.578 2.78395 272.098 3.35994 271.858 4.31995L264.754 28.7519C264.322 30.2399 263.122 31.0079 261.73 31.0079C260.386 31.0079 259.09 30.2399 258.706 28.7999L251.554 4.22394C251.266 3.21595 250.93 2.73594 250.21 2.73594C249.49 2.73594 249.01 3.31194 248.818 4.46394L244.498 32.5919Z" fill="#2C2C2A"/>
</svg>
